# xmcd
#
# Track frame offsets:
#	150
#	15339
#	26266
#	39687
#	52153
#	64249
#	79949
#	96808
#	111437
#	127955
#	141376
#	156745
#	172391
#	185253
#	201791
#	214288
#	230085
#	244516
#	259680
#	274085
#	291016
#	306203
#	319960
#
# Disc length: 4422 seconds
#
# Revision: 0
# Processed by: cddbd v1.5.2PL0 Copyright (c) Steve Scherf et al.
# Submitted via: EasyCDDAExtractor 10.0.2.1
#
DISCID=61114417
DTITLE=Joao Viola and Marcos Vinicius - Os Gargantas Douradas do Brasil
DYEAR=2011
DGENRE=Sertanejo
TTITLE0=Chucrao
TTITLE1=Paixao Goiana
TTITLE2=Amargurado
TTITLE3=Rei da Pecuaria
TTITLE4=Sete Flechas
TTITLE5=Obra do Criador
TTITLE6=Paixao Paranaense
TTITLE7=Estrela de Ouro
TTITLE8=Ultima Viagem
TTITLE9=Cada Um Com Seus Problemas
TTITLE10=Ferreirinha
TTITLE11=Pescaria no Forro
TTITLE12=Viola Pagodeira
TTITLE13=Boiadeiro de Palavra
TTITLE14=Amor Amigo
TTITLE15=Desatino
TTITLE16=Boi Soberano
TTITLE17=Mao do Tempo
TTITLE18=Olhos Lindos
TTITLE19=Cofrinho da Maristela
TTITLE20=Pingo no I
TTITLE21=Viola Vermelha
TTITLE22=Tributo a Tiao Carreiro
EXTD=
EXTT0=
EXTT1=
EXTT2=
EXTT3=
EXTT4=
EXTT5=
EXTT6=
EXTT7=
EXTT8=
EXTT9=
EXTT10=
EXTT11=
EXTT12=
EXTT13=
EXTT14=
EXTT15=
EXTT16=
EXTT17=
EXTT18=
EXTT19=
EXTT20=
EXTT21=
EXTT22=
PLAYORDER=
